<?xml version="1.0" encoding="utf-8"?>
<!-- Generator: Adobe Illustrator 15.0.0, SVG Export Plug-In . SVG Version: 6.00 Build 0)  -->
<!DOCTYPE svg PUBLIC "-//W3C//DTD SVG 1.1//EN" "http://www.w3.org/Graphics/SVG/1.1/DTD/svg11.dtd">
<svg version="1.1" id="Layer_1" xmlns="http://www.w3.org/2000/svg" xmlns:xlink="http://www.w3.org/1999/xlink" x="0px" y="0px"
	 width="1887.188px" height="1143.114px" viewBox="0 0 1887.188 1143.114" enable-background="new 0 0 1887.188 1143.114"
	 xml:space="preserve">
<g id="Lower_Facial_View">
	<g>
		<g id="tooth_1">
			<path fill="none" stroke="#333333" stroke-width="3.6783" stroke-linecap="round" d="M1695.544,674.616
				c0.042,6.812-0.562,22.953,3.412,34.322c3.022,8.646,26.356,32.34,14.837,36.838c-3.62,1.414-12.554-2.604-18.634-4.891"/>
			<path fill="none" stroke="#333333" stroke-width="4.1782" stroke-linecap="round" d="M1643.878,674.95
				c-6.01-9.074-17.6-31.561-12.96-41.01c5.066-10.322,24.403-12.988,35.126-1.324"/>
			<path fill="none" stroke="#333333" stroke-width="3.2745" stroke-linecap="round" d="M1666.044,632.616
				c-0.256,5.854,3.23,16.441-1.5,19.668"/>
			<path fill="none" stroke="#333333" stroke-width="4.9089" stroke-linecap="round" d="M1643.878,674.95
				c17.454,1.182,34.369,5.131,51.666-0.334"/>
			<path fill="none" stroke="#333333" stroke-width="3.8521" stroke-linecap="round" d="M1695.544,674.616
				c5.006-9.352,10.974-29.312,8.46-36.564c-3.97-11.457-14.501-17.307-25.312-12.725c-3.716,1.574-7.556,6.205-12.648,7.289"/>
			<path fill="none" stroke="#333333" stroke-width="3.402" stroke-linecap="round" d="M1695.159,740.885
				c-12.008-11.898-18.459-28.238-27.115-42.27"/>
			<path fill="none" stroke="#333333" stroke-width="3.6671" stroke-linecap="round" d="M1643.878,674.95
				c-0.39,20.936,15.373,58.539,46.295,80.865c7.502,5.418,3.288-14.85,4.986-14.93"/>
		</g>
		<g>
			<path fill="none" stroke="#333333" stroke-width="3.2771" stroke-linecap="round" d="M1548.71,673.784
				c-4.595-7.967-20.746-26.854-18.647-34.955c2.121-8.203,17.416-15.715,28.434-13.131c3.242,0.762,10.328,7.104,13.264,7.775"/>
			<path fill="none" stroke="#333333" stroke-width="3.3333" stroke-linecap="round" d="M1548.71,673.784
				c17.441-3.328,35.408,0.543,52.634,2.832"/>
			<path fill="none" stroke="#333333" stroke-width="3.8036" stroke-linecap="round" d="M1601.344,676.616
				c2.797-6.996,11.198-29.654,6.154-38.898c-5.011-9.184-23.463-17.094-35.739-4.244"/>
			<path fill="none" stroke="#333333" stroke-width="3.0243" stroke-linecap="round" d="M1571.759,633.473
				c2.537,7.557-0.58,15.863,1.285,23.645"/>
			<path fill="none" stroke="#333333" stroke-width="3.7861" stroke-linecap="round" d="M1548.71,673.784
				c6.036,19.143-3.481,45.285,9.32,68.062c2.364,4.207,5.646,7.945,7.928,12.916c3.521,7.666,4.869,21.213,11.528,20.338
				c14.248-1.871-3.092-39.934-4.659-44.479c-3.991-11.561-4.364-30.748,4.764-31.387c7.951-0.555,14.756,24.805,15.453,28.559
				c1.633,8.795,3.653,46.109,19.956,43.107c7.346-1.354,3.742-9.264,2.352-21.084c-2.273-19.344-0.234-28.457-4.888-42.152
				c-3.894-11.459-9.525-18.555-9.12-31.049"/>
		</g>
		<g>
			<path fill="none" stroke="#333333" stroke-width="4.152" stroke-linecap="round" d="M1479.044,639.016
				c10.056-4.287,22.306-10.242,31-0.5"/>
			<path fill="none" stroke="#333333" stroke-width="4.1371" stroke-linecap="round" d="M1446.321,681.321
				c-8.64-19.498-12.646-43.939,7.687-48.617c6.678-1.537,15.528,3.717,25.036,6.312"/>
			<path fill="none" stroke="#333333" stroke-width="3.8813" stroke-linecap="round" d="M1446.321,681.321
				c8.928,0.027,15.03,1.83,21.15,3.832c19.293,6.312,24.771-0.174,44.671-3.537"/>
			<path fill="none" stroke="#333333" stroke-width="3.854" stroke-linecap="round" d="M1512.143,681.616
				c10.754-9.773,20.789-47.48-2.1-43.1"/>
			<path fill="none" stroke="#333333" stroke-width="4.2383" stroke-linecap="round" d="M1510.044,638.516
				c0.169,5.842,3.672,11.102,3,17.102"/>
			<path fill="none" stroke="#333333" stroke-width="3.363" stroke-linecap="round" d="M1479.044,639.016
				c-0.649,8.818,2.937,17.424,1.045,25.965"/>
			<path fill="none" stroke="#333333" stroke-width="3.7803" stroke-linecap="round" d="M1446.321,681.321
				c-0.158,22.201-7.518,77.814,12.035,101.049c9.95,11.824,23.36,17.66,14.152-4.693c-6.703-16.27-13.198-34.311-5.729-53.432
				c2.246-5.75,6.848-17.266,12.256-15.717c3.702,1.061,7.492,17.5,10.022,22.02c2.207,3.941,12.104,10.842,16.904,22.396
				c3.704,8.918,1.939,23.629,6.878,30.666c0.207,0.297,9.82,9.629,10.807,4.766c2.534-12.504,2.633-29.895,0.657-40.121
				c-3.778-19.568-20.762-39.85-12.162-66.639"/>
		</g>
		<g>
			<path fill="none" stroke="#333333" stroke-width="4.5017" stroke-linecap="round" d="M1354.081,691.055
				c-12.793-20.123-4.715-53.025,18.942-55.209c16.801-1.551,28.593,16.59,23.556,33.764c-3.392,11.562-8.271,23.375-11.535,30.508"
				/>
			<path fill="none" stroke="#333333" stroke-width="4.4797" stroke-linecap="round" d="M1354.081,691.055
				c8.37,8.854,19.479,14.307,30.963,9.062"/>
			<path fill="none" stroke="#333333" stroke-width="4.1989" stroke-linecap="round" d="M1354.081,691.055
				c-2.828,13.5-2.836,52.291,0.01,69.473c2.324,14.033,5.778,31.717,13.812,41.777c12.98,16.264,10.271-30.922,11.037-41.943
				c1.499-21.617,3.852-41.008,6.104-60.244"/>
		</g>
		<g>
			<path fill="none" stroke="#333333" stroke-width="3.2041" stroke-linecap="round" d="M230.065,752.313
				c-8.496,11.859-29.828,20.855-26.054,5.41c1.196-4.896,13.863-16.766,17.488-24.26c8.207-16.969,3.545-33.291,6.793-44.098"/>
			<path fill="none" stroke="#333333" stroke-width="3.3343" stroke-linecap="round" d="M228.294,689.366
				c-1.541-0.582-1.766-2.994-2.274-4.658c-6.56-21.363-9.107-31.621,8.213-39.469c6.21-2.812,15.176-6.773,23.17,4.164"/>
			<path fill="none" stroke="#333333" stroke-width="3.3798" stroke-linecap="round" d="M275.744,689.417
				c23.177-19.15,14.864-63.805-18.343-40.014"/>
			<path fill="none" stroke="#333333" stroke-width="3.3018" stroke-linecap="round" d="M230.065,752.313
				c5.418-10.957,11.161-21.396,17.146-32.029"/>
			<path fill="none" stroke="#333333" stroke-width="2.8071" stroke-linecap="round" d="M230.065,752.313
				c2.525,2.908-0.464,6.145-0.76,8.945c-1.78,16.861,12.074,6.758,17.433,0.729c14.437-16.25,26.553-53.428,29.006-72.57"/>
			<path fill="none" stroke="#333333" stroke-width="4.0946" stroke-linecap="round" d="M275.744,689.417
				c-15.293,2.512-32.341,7.184-47.45-0.051"/>
		</g>
		<g>
			<path fill="none" stroke="#333333" stroke-width="3.1856" stroke-linecap="round" d="M377.544,692.116
				c8.413,29.416,4.987,58.82-15.227,86.154c-6.129,8.287-9.045,13.834-14.781,10.029c-7.808-5.174,0.853-20.561,3.32-26.902
				c5.581-14.34,15.891-35.83,3.2-39.629c-14.475-4.332-27.464,35.232-29.827,51.062c-0.895,5.988-0.61,17.406-6.146,19.717
				c-14.422,6.021-10.58-32.52-9.253-42.312c3.396-25.057,12.538-41.467,12.112-56.119"/>
			<path fill="none" stroke="#333333" stroke-width="3.4595" stroke-linecap="round" d="M320.944,694.116
				c-2.312-12.648-18.365-27.064-9.886-41.17c6.107-10.158,15.802-15.008,35.939-3.693"/>
			<path fill="none" stroke="#333333" stroke-width="3.8368" stroke-linecap="round" d="M377.544,692.116
				c6.938-15.287,15.378-51.201-12.565-49.959c-5.11,0.227-12.479,5.596-17.979,7.096"/>
			<path fill="none" stroke="#333333" stroke-width="3.2318" stroke-linecap="round" d="M346.999,649.252
				c-0.695,8.834-4.908,17.127-0.955,25.863"/>
			<path fill="none" stroke="#333333" stroke-width="3.5047" stroke-linecap="round" d="M377.544,692.116
				c-18.486,3.602-37.799,2.885-56.6,2"/>
		</g>
		<g>
			<path fill="none" stroke="#333333" stroke-width="4.048" stroke-linecap="round" d="M1265.124,711.713
				c-1.729-10.354-16.146-34.855-8.309-50.121c4.333-8.439,19.72-20.826,28.021-17.445c3.464,1.41,18.369,13.559,20.825,18.734
				c5.588,11.779-6.428,38.961-13.596,53.432"/>
			<path fill="none" stroke="#333333" stroke-width="4.2817" stroke-linecap="round" d="M1265.124,711.713
				c8.416,3.955,17.453,7.736,26.941,4.6"/>
			<path fill="none" stroke="#333333" stroke-width="4.3003" stroke-linecap="round" d="M1265.124,711.713
				c-1.1,25.131,1.723,53.959,4.397,77.881c1.053,9.396-0.356,19.127,6.529,29.852c2.349,3.652,18.028,16.918,15.952-0.381
				c-3.063-25.533-3.75-76.133,0.062-102.752"/>
		</g>
		<path fill="none" stroke="#333333" stroke-width="3.7897" stroke-linecap="round" d="M456.401,655.403
			c0.264,8.955-1.83,17.512-2.644,26.355"/>
		<g>
			<path fill="none" stroke="#333333" stroke-width="3.76" stroke-linecap="round" d="M485.893,709.704
				c-3.855,21.236,2.899,70.369-16.315,94.83c-15.402,19.607-19.836,3.014-13.321-14.73c6.801-18.525,5.738-34.848-2.672-45.127
				c-8.396-10.262-23.295,16.027-26.559,28.172c-2.402,8.939-2.11,49.58-16.419,40.545c-8.354-5.275-6.126-32.902-2.971-44.738
				c6.693-25.109,17.136-38.539,16.208-65.537"/>
			<path fill="none" stroke="#333333" stroke-width="3.8383" stroke-linecap="round" d="M423.844,703.116
				c-8.036-12.076-16.289-33.455-7.941-43.592c6.58-7.99,32.245-20.975,40.5-4.121"/>
			<path fill="none" stroke="#333333" stroke-width="3.5199" stroke-linecap="round" d="M485.893,709.704
				c5.031-14.186,16.457-44.246,11.27-52.773c-6.125-10.066-24.17-8.48-40.76-1.527"/>
			<path fill="none" stroke="#333333" stroke-width="4.3257" stroke-linecap="round" d="M485.893,709.704
				c-12.154-2.096-28.939,3.758-38.113,2.186c-8.609-1.477-14.112-11.139-23.936-8.771"/>
		</g>
		<g>
			<path fill="none" stroke="#333333" stroke-width="3.5594" stroke-linecap="round" d="M607.544,714.616
				c-3.554-12.93-7.951-19.453-9.235-29.643c-3.587-28.447,45.471-48.336,53.882-15.117c2.651,10.475-7.802,34.516-13.646,47.26"/>
			<path fill="none" stroke="#333333" stroke-width="2.9352" stroke-linecap="round" d="M607.544,714.616
				c9.615,5.264,20.433,6.193,31,2.5"/>
			<path fill="none" stroke="#333333" stroke-width="3.3654" stroke-linecap="round" d="M607.544,714.616
				c-1.442,28.818,5.695,54.639,9.238,82.322c0.639,4.992-3.694,27.123,1.844,29.352c9.095,3.66,16.788-24.205,17.411-26.859
				c6.175-26.344-1.112-56.947,2.507-82.312"/>
		</g>
		<g>
			<path fill="none" stroke="#333333" stroke-width="4.2719" stroke-linecap="round" d="M1171.172,728.081
				c-5.251-15.699-5.191-26.674-7.048-40.062c-3.013-21.754,0.863-40.545,23.89-30.645c10.438,4.488,22.152,8.473,25.443,19.711
				c3.194,10.908-3.124,38.691-7.513,57.531"/>
			<path fill="none" stroke="#333333" stroke-width="4.3338" stroke-linecap="round" d="M1171.172,728.081
				c8.271,11.961,22.798,18.754,34.772,6.535"/>
			<path fill="none" stroke="#333333" stroke-width="3.7764" stroke-linecap="round" d="M1171.172,728.081
				c-2.042,15.422,1.038,34.65,4.155,50.012c5.6,27.586,9.446,66.836,29.925,82.773c-0.122-0.094,5.553,5.459,9.885,4.211
				c7.725-2.225,2.173-6.396,1.235-10.01c-3.401-13.123-8.801-21.592-10.526-34.637c-3.765-28.461,0.454-59.623,0.1-85.814"/>
		</g>
		<g>
			<path fill="none" stroke="#333333" stroke-width="4.727" stroke-linecap="round" d="M894.705,716.68
				c-3.235-16.189-7.395-36.02-7.444-50.891c-0.006-1.781-1.252-3.691-0.653-5.604c3.02-9.672,29.47-6.631,33.561-3.43
				c9.562,7.482,2.934,39.695,1.85,48.098c-0.429,3.311,0.069,10.34-3.473,15.764"/>
			<path fill="none" stroke="#333333" stroke-width="3.6655" stroke-linecap="round" d="M894.705,716.68
				c6.569,6.502,15.239,9.568,23.839,3.938"/>
			<path fill="none" stroke="#333333" stroke-width="4.3075" stroke-linecap="round" d="M894.705,716.68
				c-0.509,20.197,1.4,34.904,1.69,60.381c0.14,12.279-5.188,31.68-0.615,43.928c5.342,14.307,18.465-24.521,19.462-29.557
				c5.357-27.066,4.525-48.736,3.302-70.814"/>
		</g>
		<g>
			<path fill="none" stroke="#333333" stroke-width="3.3472" stroke-linecap="round" d="M532.115,726.045
				c-14.965-20.105-18.958-43.551,0.152-59.66c5.302-4.467,11.125-9.824,18.222-9.242c9.336,0.768,19.975,9.807,22.291,17.119
				c4.889,15.438-10.729,38.291-12.715,52.051"/>
			<path fill="none" stroke="#333333" stroke-width="3.7357" stroke-linecap="round" d="M532.115,726.045
				c8.938,3.994,18.954,4.959,27.95,0.268"/>
			<path fill="none" stroke="#333333" stroke-width="2.9764" stroke-linecap="round" d="M532.115,726.045
				c-2.531,16.859-1.461,36.926,1.667,52.213c3.827,18.701-0.743,38.092,2.309,54.924c1.619,8.932,9.832,15.035,15.768,0.436
				c7.904-19.451,3.883-66.436,7.225-92.576c0.798-6.234,3.471-9.338,0.983-14.729"/>
		</g>
		<g>
			<path fill="none" stroke="#333333" stroke-width="4.5251" stroke-linecap="round" d="M704.794,732.116
				c-4.856-15.668-24.678-50.152,1.67-61.977c4.902-2.199,7.135-6.223,10.301-8.17c9.744-5.998,23.098-5.188,28.443,4.023
				c6.37,10.979-3.106,51.078-5.831,66.123"/>
			<path fill="none" stroke="#333333" stroke-width="3.2923" stroke-linecap="round" d="M704.794,732.116
				c10.534,9.08,24.041,8.932,34.583,0"/>
			<path fill="none" stroke="#333333" stroke-width="4.4847" stroke-linecap="round" d="M704.794,732.116
				c2.022,30.072,3.535,82.383-3.488,110.863c-0.426,1.723-8.169,20.656-1.598,25.135c6.293,4.287,13.192-5.326,16.48-10.275
				c15.616-23.504,20.533-58.908,23.553-90.998c0.998-10.609,4.646-25.002-0.364-34.725"/>
		</g>
		<g>
			<path fill="none" stroke="#333333" stroke-width="4.3303" stroke-linecap="round" d="M799.794,719.116
				c-3.088-11.719-6.404-22.518-8.488-32.861c-1.562-7.76-3.971-17.949-1.68-22.59c4.062-8.227,24.142-8.467,31.823-6.492
				c17.31,4.451,10.427,28.762,6.938,49.062c-0.698,4.064-2.007,10.369-4.7,16.953"/>
			<path fill="none" stroke="#333333" stroke-width="3.8844" stroke-linecap="round" d="M799.794,719.116
				c7.497,3.283,15.389,9.729,23.894,4.072"/>
			<path fill="none" stroke="#333333" stroke-width="4.3334" stroke-linecap="round" d="M799.794,719.116
				c8.232,25.299-7.132,85.604,1.715,111.48c4.525,13.238,14.819-12.963,14.577-12.281c8.939-25.154,7.142-60.332,7.602-95.127"/>
		</g>
		<g>
			<path fill="none" stroke="#333333" stroke-width="4.6602" stroke-linecap="round" d="M999.321,726.172
				c-0.918-11.646-15.857-49.133-8.256-61.467c3.939-6.393,29.647-8.004,36.84-2.076c6.526,5.379,0.174,50.213-2.22,60.559"/>
			<path fill="none" stroke="#333333" stroke-width="2.9649" stroke-linecap="round" d="M999.321,726.172
				c8.86,10.998,18.077,3.541,26.364-2.984"/>
			<path fill="none" stroke="#333333" stroke-width="4.2983" stroke-linecap="round" d="M999.321,726.172
				c2.314,27.262-1.951,71.936,8.765,96.744c0.85,1.967,6.651,9.801,12.032,5.273c1.271-1.068,1.022-17.367,1.356-22.061
				c1.681-23.615,5.39-55.123,4.212-82.941"/>
		</g>
		<g>
			<path fill="none" stroke="#333333" stroke-width="4.2592" stroke-linecap="round" d="M1078.544,732.616
				c1.206-8.98-13.233-52.055-4.319-60.602c3.131-3.002,10.394-0.879,12.717-0.832c3.781,0.076,20.584-0.998,25.262,3.564
				c9.838,9.594-4.48,55.916-8.516,65.439"/>
			<path fill="none" stroke="#333333" stroke-width="3.9461" stroke-linecap="round" d="M1078.544,732.616
				c6.689,6.773,15.24,13.537,25.144,7.572"/>
			<path fill="none" stroke="#333333" stroke-width="4.3729" stroke-linecap="round" d="M1078.544,732.616
				c-1.854,27.158-2.223,73.674,10.515,104.602c3.327,8.084,15.504,30.545,21.988,19.852c1.015-1.672-3.475-12.574-4.419-15.922
				c-7.614-26.984-0.968-74.139-2.94-100.959"/>
		</g>
	</g>
</g>
<g id="Upper_Facial_View">
	<g>
		<g display="none">
			<path display="inline" fill="none" stroke="#333333" stroke-width="3.32" stroke-linecap="round" d="M311.944,377.809
				c2.597-6.857,0.393-8.93,3.816-12.25c14.708-14.26,4.097,28.094,14.782,30.25"/>
			<path display="inline" fill="none" stroke="#333333" stroke-width="2.911" stroke-linecap="round" d="M330.544,395.809
				c4.352-5.442,1.752-22.405,4.467-27.59c10.473-19.995,12.605,29.086,23.533,34.99"/>
			<path display="inline" fill="none" stroke="#333333" stroke-width="4.1278" stroke-linecap="round" d="M373.919,460.709
				c21.731,32.984,8.205,71.281-28.375,48.5"/>
			<path display="inline" fill="none" stroke="#333333" stroke-width="3.1189" stroke-linecap="round" d="M311.944,377.809
				c-3.046,26.447,15.091,52.974,5.903,78.921"/>
			<path display="inline" fill="none" stroke="#333333" stroke-width="2.9984" stroke-linecap="round" d="M317.849,456.73
				c18.979,2.897,38.512-4.417,56.07,3.979"/>
			<path display="inline" fill="none" stroke="#333333" stroke-width="3.7459" stroke-linecap="round" d="M373.919,460.709
				c-1.229-13.212,9.436-43.102,7.05-61.043c-2.208-16.611-9.049-35.85-17.85-42.232c-2.135-1.548-4.148-0.652-4.417-0.508
				c-9.838,5.255,13.073,33.912-0.158,46.283"/>
			<path display="inline" fill="none" stroke="#333333" stroke-width="3.7187" stroke-linecap="round" d="M330.544,395.809
				c4.586,9.057,4.825,24.517,12.244,30.576c12.581,10.275,19.671-10.601,15.756-23.176"/>
			<path display="inline" fill="none" stroke="#333333" stroke-width="3.4803" stroke-linecap="round" d="M317.849,456.73
				c-8.831,5.824-16.026,25.214-14.312,36.479c2.318,15.238,29.27,38.731,42.009,16"/>
			<path display="inline" fill="none" stroke="#333333" stroke-width="3.2387" stroke-linecap="round" d="M345.544,509.209
				c-4.364-8.439-1.341-17.97-2-27"/>
		</g>
		<g>
			<path fill="none" stroke="#333333" stroke-width="3.8272" stroke-linecap="round" d="M1621.21,371.542
				c-1.512,4.898-0.081,14.534-1.325,21.111c-3.376,17.843-18.24,36.467-20.191,56c-0.946,9.477,2.603,18.592-1.239,26.374"/>
			<path fill="none" stroke="#333333" stroke-width="3.7555" stroke-linecap="round" d="M1598.453,475.027
				c0.898,0.55,1.644,6.697,2.095,8.158c6.366,20.641,1.693,22.755-8.182,37.601c-6.271,9.43-15.816,3.111-27.988-3.744"/>
			<path fill="none" stroke="#333333" stroke-width="3.7591" stroke-linecap="round" d="M1621.21,371.542
				c-19.151-9.227-8.614,25.367-25.5,27.333"/>
			<path fill="none" stroke="#333333" stroke-width="4.7765" stroke-linecap="round" d="M1595.71,398.875
				c-5.644,6.971-17.762,42.418-25.244,35.084c-6.991-6.852-4.881-20.422,1.239-34.815"/>
			<path fill="none" stroke="#333333" stroke-width="3.5607" stroke-linecap="round" d="M1571.705,399.145
				c-5.564-13.018,19.495-26.656,16.246-34.971c-3.432-8.782-14.002,3.424-16.668,6.74c-19.944,24.807-31.94,67.494-31.339,100.795"
				/>
			<path fill="none" stroke="#333333" stroke-width="3.8274" stroke-linecap="round" d="M1595.71,398.875
				c-1.592-4.293,9.636-30.212,1.031-28.154c-10.373,2.48-14.629,23.284-25.036,28.422"/>
			<path fill="none" stroke="#333333" stroke-width="3.6152" stroke-linecap="round" d="M1539.944,471.709
				c-11.47,18.25-23.277,54.747,8.168,50.306c5.338-0.754,8.798-1.772,16.266-4.973"/>
			<path fill="none" stroke="#333333" stroke-width="3.4707" stroke-linecap="round" d="M1564.378,517.042
				c0.467-8.911,0.979-17.77,2.11-26.611"/>
			<path fill="none" stroke="#333333" stroke-width="3.8442" stroke-linecap="round" d="M1598.453,475.027
				c-18.782-8.784-38.45-0.616-58.509-3.318"/>
		</g>
		<g>
			<path fill="none" stroke="#333333" stroke-width="3.972" stroke-linecap="round" d="M747.916,434.744
				c3.99,21.684,17.94,39.412,12.253,56.702c-2.592,7.878-15.876,18.431-22.239,23.009c-8.279,5.959-15.552,8.042-23.833-0.148
				c-7.683-7.598-20.724-18.03-21.142-28.539c-0.799-20.085,21.542-32.123,20.8-54.189"/>
			<path fill="none" stroke="#333333" stroke-width="4.3186" stroke-linecap="round" d="M747.916,434.744
				c-1.227-33.923-2.816-83.268-12.199-120.881c-6.035-24.195-23.251-26.175-21.098,0.797c1.254,15.701,4.291,34.934,1.86,55.986
				c-2.766,23.948-8.976,44.79-2.726,60.931"/>
			<path fill="none" stroke="#333333" stroke-width="5.4526" stroke-linecap="round" d="M747.916,434.744
				c-9.257-8.895-23.415-12.888-34.161-3.167"/>
		</g>
		<g>
			<path fill="none" stroke="#333333" stroke-width="3.8074" stroke-linecap="round" d="M1215.759,444.566
				c9.384,21.608,19.894,43.859,4.488,63.778c-17.258,22.313-26.399,7.22-44.978-1.794c-9.254-4.489-11.938-4.962-12.747-15.32
				c-1.352-17.288,9.768-26.834,13.39-47.812"/>
			<path fill="none" stroke="#333333" stroke-width="3.5114" stroke-linecap="round" d="M1215.759,444.566
				c1.702-30.948-6.95-90.562-5.14-127.809c0.175-3.587,2.611-13.295,0.62-15.556c-5.071-5.76-10.019,0.143-12.933,5.654
				c-8.418,15.92-11.684,38.105-14.319,56.15c-3.886,26.596-8.728,54.02-8.075,80.414"/>
			<path fill="none" stroke="#333333" stroke-width="3.788" stroke-linecap="round" d="M1215.759,444.566
				c-10.164-14.927-31.021-20.357-39.847-1.146"/>
		</g>
		<g>
			<path fill="none" stroke="#333333" stroke-width="3.7804" stroke-linecap="round" d="M656.419,438.334
				c4.659,16.329,13.747,35.797,11.497,48.517c-1.344,7.594-15.307,20.116-25.007,23.566c-12.977,4.614-18.396-6.315-26.271-13.683
				c-18.78-17.568-3.036-47.372,5.997-65.707"/>
			<path fill="none" stroke="#333333" stroke-width="4.6368" stroke-linecap="round" d="M622.635,431.027
				c-1.859-18.062,4.529-35.734,5.824-53.925"/>
			<path fill="none" stroke="#333333" stroke-width="5.6539" stroke-linecap="round" d="M638.044,355.709
				c-1.034,7.484-4.101,16.304-9.585,21.394"/>
			<path fill="none" stroke="#333333" stroke-width="4.0237" stroke-linecap="round" d="M656.419,438.334
				c-1.922-22.965,9.012-102.303-1.389-122.791c-2.113-4.161-6.86-10.591-10.781-3.115c-2.965,5.654,4.069,34.712-6.205,43.28"/>
			<path fill="none" stroke="#333333" stroke-width="4.3652" stroke-linecap="round" d="M638.044,355.709
				c-10.251-7.486-2.604-39.412-18.368-39.611c-13.962-0.177-1.766,17.517,1.389,24.676c6.215,14.112,2.626,30.039,7.396,36.329"/>
			<path fill="none" stroke="#333333" stroke-width="4.1464" stroke-linecap="round" d="M656.419,438.334
				c-7.768-11.206-21.719-13.569-33.784-7.307"/>
		</g>
		<g>
			<path fill="none" stroke="#333333" stroke-width="4.5263" stroke-linecap="round" d="M936.383,443.145
				c5.067,21.161,21.879,69.006-6.162,74.486c-4.781,0.936-11.275-0.571-17.841-1.121c-13.715-1.148-32.344,5.497-39.505-7.555
				c-10.289-18.75,15.068-44.376,18.002-62.524"/>
			<path fill="none" stroke="#333333" stroke-width="4.1625" stroke-linecap="round" d="M936.383,443.145
				c1.986-39.096-7.4-69.438-17.507-105.13c-1.544-5.455-8.967-38.862-20.02-18.625c-5.034,9.217,2.727,28.173,0.611,41.272
				c-4.462,27.649-11.487,61.415-8.592,85.771"/>
			<path fill="none" stroke="#333333" stroke-width="3.9519" stroke-linecap="round" d="M936.383,443.145
				c-12.164-17.037-36.706-16.395-45.506,3.287"/>
		</g>
		<g>
			<path fill="none" stroke="#333333" stroke-width="3.7584" stroke-linecap="round" d="M829.313,446.594
				c-0.271,19.98,23.561,60.473-0.412,70.844c-21.664,9.371-50.865,1.775-46.294-23.661c2.985-16.617,12.388-31.308,14.209-50.203"
				/>
			<path fill="none" stroke="#333333" stroke-width="4.2777" stroke-linecap="round" d="M829.313,446.594
				c0.692-0.54,2.703-1.882,3.081-3.446c2.381-9.854-10.151-52.481-13.088-67.26c-4.029-20.287-3.067-30.217-9.912-45.284
				c-7.021-15.458-23.202-19.893-17.091-1.52c5.502,16.538,4.509,57.951,3.329,83.081c-0.426,9.072-2.833,23.729,1.184,31.409"/>
			<path fill="none" stroke="#333333" stroke-width="4.7258" stroke-linecap="round" d="M829.313,446.594
				c-6.941-11.042-23.579-14.104-32.497-3.021"/>
		</g>
		<g>
			<path fill="none" stroke="#333333" stroke-width="3.7768" stroke-linecap="round" d="M563.544,450.209
				c11.992,14.378,20.749,45.914-8.688,63.354c-10.874,6.442-23.78,3.336-31.511-7.982c-11.334-16.595,3.791-43.087,10.058-59.943"
				/>
			<path fill="none" stroke="#333333" stroke-width="4.1994" stroke-linecap="round" d="M563.544,450.209
				c-0.871-27.307-2.074-52.818-6.021-77.985c-2.538-16.183-3.525-23.809-9.354-36.707c-3.462-7.661-12.267-22.217-19.279-9.038
				c-3.75,7.048,2.232,21.898,3.076,29.054c3.592,30.483,0.543,62.651,1.437,90.104"/>
			<path fill="none" stroke="#333333" stroke-width="4.2207" stroke-linecap="round" d="M563.544,450.209
				c-9.287-5.884-19.688-10.954-30.143-4.571"/>
		</g>
		<g>
			<path fill="none" stroke="#333333" stroke-width="4.1113" stroke-linecap="round" d="M1121.044,450.709
				c2.653,11.04,4.183,20.311,8.129,33.16c3.146,10.243,8.961,22.711,3.664,30.098c-5.797,8.084-31.873,5.877-39.457,4.544
				c-20.965-3.686-13.796-31.333-8.298-53.868c1.599-6.555,4.745-14.426,5.553-18.614"/>
			<path fill="none" stroke="#333333" stroke-width="4.1525" stroke-linecap="round" d="M1121.044,450.709
				c4.619-26.887-2.875-76.175-0.425-99.951c0.479-4.65,10.437-24.21,6.921-28.887c-6.298-8.377-16.365,6.885-17.407,8.579
				c-17.014,27.644-14.064,82.837-19.498,115.577"/>
			<path fill="none" stroke="#333333" stroke-width="4.8826" stroke-linecap="round" d="M1121.044,450.709
				c-6.563-11.212-20.936-13.13-30.409-4.682"/>
		</g>
		<g>
			<path fill="none" stroke="#333333" stroke-width="4.5999" stroke-linecap="round" d="M1033.544,447.209
				c6.119,15.426,6.605,20.632,11.313,32.213c4.849,11.927,13.436,31.21,3.005,39.753c-7.904,6.475-27.809,3.474-35.155,3.002
				c-2.495-0.159-23.458,1.337-28.854-2.344c-12.512-8.533,2.605-54.329,3.781-66.807"/>
			<path fill="none" stroke="#333333" stroke-width="4.5217" stroke-linecap="round" d="M1033.544,447.209
				c-0.095-37.577-13.918-76.306-7.762-114.321c0.301-1.86,1.406-5.384,0.995-6.695c-5.778-18.432-24.073,15.891-26.755,23.581
				c-9.874,28.323-11.521,72.044-12.389,103.254"/>
			<path fill="none" stroke="#333333" stroke-width="4.9287" stroke-linecap="round" d="M1033.544,447.209
				c-13.509-16.479-36.834-11.31-45.909,5.818"/>
		</g>
		<g>
			<path fill="none" stroke="#333333" stroke-width="3.7417" stroke-linecap="round" d="M1295.115,447.638
				c5.917,14.175,21.015,33.813,13.265,49.14c-6.009,11.882-20.507,22.854-30.479,20.205c-5.787-1.539-8.447-5.422-12.1-8.001
				c-12.087-8.539-15.593-14.947-13.196-31.218c1.583-10.756,7.015-19.561,9.716-29.108"/>
			<path fill="none" stroke="#333333" stroke-width="3.8808" stroke-linecap="round" d="M1262.321,448.653
				c-0.302-31.463,13.413-82.243,17.461-112.807c0.631-4.766-0.525-15.778,6.207-14.781c5.062,0.75,3.896,14.109,7.373,13.234"/>
			<path fill="none" stroke="#333333" stroke-width="4.1818" stroke-linecap="round" d="M1295.115,447.638
				c-0.473-28.459,1.144-58.867,1.075-88.164"/>
			<path fill="none" stroke="#333333" stroke-width="5.3689" stroke-linecap="round" d="M1296.19,359.474
				c-3.003-7.654-3.084-16.803-2.828-25.174"/>
			<path fill="none" stroke="#333333" stroke-width="4.0271" stroke-linecap="round" d="M1296.19,359.474
				c2.044-5.628,17.666-22.778,16.223-28.734c-2.109-8.7-13.451-2.232-19.051,3.561"/>
			<path fill="none" stroke="#333333" stroke-width="3.7775" stroke-linecap="round" d="M1295.115,447.638
				c-9.839-8.274-24.126-7.688-32.794,1.017"/>
		</g>
		<g>
			<path fill="none" stroke="#333333" stroke-width="4.1591" stroke-linecap="round" d="M1381.953,446.664
				c-1.085,10.817,18.564,38.328,15.07,50.217c-3.938,13.392-23.024,23.773-34.433,21.249c-29.944-6.627-31.618-40.43-18.333-64.277
				"/>
			<path fill="none" stroke="#333333" stroke-width="4.5991" stroke-linecap="round" d="M1381.953,446.664
				c-1.081-35.107-4.953-72.512,0.995-103.771c0.021-0.117,7.146-23.686-1.314-21.121c-13.503,4.095-17.047,28.905-19.637,38.333
				c-8.312,30.243-13.471,63.695-17.008,85.009c-0.529,3.186-2.974,5.799-0.73,8.739"/>
			<path fill="none" stroke="#333333" stroke-width="4.5995" stroke-linecap="round" d="M1381.953,446.664
				c-11.958-11.868-28.432-2.145-37.694,7.188"/>
		</g>
		<g>
			<path fill="none" stroke="#333333" stroke-width="3.5215" stroke-linecap="round" d="M442.115,506.78
				c-6.274,2.285-15.434,14.093-27.148,9.25c-21.665-8.956-24.346-35.854-1.88-58.784c0.18-0.183,0.424-0.149,0.513-0.26"/>
			<path fill="none" stroke="#333333" stroke-width="4.3791" stroke-linecap="round" d="M413.6,456.987
				c13.254-30.003-15.885-67.839-6.345-93.588c2.063-5.568,11.115-17.261,13.692-7.589c3.219,12.085-6.171,31.659,14.827,42.092"/>
			<path fill="none" stroke="#333333" stroke-width="3.7096" stroke-linecap="round" d="M465.544,389.209
				c-10.108-11.446-3.108-44.251-20.509-46.255c-13.488-1.553-0.407,22.203-1.521,32.271c-0.91,8.247-6.872,15.166-7.74,22.676"/>
			<path fill="none" stroke="#333333" stroke-width="4.1506" stroke-linecap="round" d="M465.544,389.209
				c-0.906,12.87-2.53,31.73-11.567,31.271c-4.497-0.229-13.354-19.111-18.201-22.578"/>
			<path fill="none" stroke="#333333" stroke-width="3.8725" stroke-linecap="round" d="M480.344,458.209
				c-3.76-27.837,9.051-68.495,1.198-92.972c-0.091-0.28-3.538-11.119-5.002-12.386c-15.977-13.816-1.079,30.332-10.996,36.357"/>
			<path fill="none" stroke="#333333" stroke-width="3.0423" stroke-linecap="round" d="M442.115,506.78
				c2.21-8.007,1.608-16.446,3.929-24.405"/>
			<path fill="none" stroke="#333333" stroke-width="3.1879" stroke-linecap="round" d="M442.115,506.78
				c13.566,15.787,42.042,18.073,47.85-1.896c1.47-5.053-6.021-38.754-9.621-46.676"/>
			<path fill="none" stroke="#333333" stroke-width="2.8284" stroke-linecap="round" d="M480.344,458.209
				c-11.688,2.479-18.867-0.928-23.433-4.197c-7.211-5.165-15.147,1.324-22.62,2.883c-6.737,1.406-15.688,1.288-20.691,0.093"/>
		</g>
		<g>
			<path fill="none" stroke="#333333" stroke-width="3.6415" stroke-linecap="round" d="M1470.973,518.352
				c-9.474,12.058-35.79,3.346-40.729-7.361c-6.421-13.915,5.801-31.884,10.522-43.727"/>
			<path fill="none" stroke="#333333" stroke-width="3.9776" stroke-linecap="round" d="M1440.768,467.265
				c0.406-28.915-12.175-63.085-3.732-94.93c1.547-5.836,7.767-25.932,17.293-17.677c4.431,3.839-0.887,17.482-2.314,24.11
				c-2.014,9.352-5.727,26.452,4.531,34.44"/>
			<path fill="none" stroke="#333333" stroke-width="3.9969" stroke-linecap="round" d="M1456.544,413.209
				c7.571-16.021,2.387-52.908,17.066-57.309c3.271-0.98,2.692,14.078,3.462,19.546c0.999,7.098,2.341,13.697,6.241,22.148"/>
			<path fill="none" stroke="#333333" stroke-width="3.3992" stroke-linecap="round" d="M1440.768,467.265
				c20.736-4.87,41.252-3.848,62.776-3.655"/>
			<path fill="none" stroke="#333333" stroke-width="3.6664" stroke-linecap="round" d="M1470.973,518.352
				c-6.304-10.445,1.513-21.67,1.071-32.477"/>
			<path fill="none" stroke="#333333" stroke-width="4.289" stroke-linecap="round" d="M1503.544,463.609
				c-5.291-14.057-1.946-26.419,3.492-47.586c4.455-17.335,1.451-37.641,0.114-49.071c-0.62-5.295,1.07-19.516-5.403-17.184
				c-10.707,3.856-5.937,12.42-6.264,24.315c-0.267,9.61-6.646,20.739-12.171,23.51"/>
			<path fill="none" stroke="#333333" stroke-width="4.1918" stroke-linecap="round" d="M1456.544,413.209
				c3.858,11.692,11.319,19.359,17.961,14.275c3.316-2.54,6.935-24.591,8.81-29.892"/>
			<path fill="none" stroke="#333333" stroke-width="3.6635" stroke-linecap="round" d="M1470.973,518.352
				c37.071,28.233,50.422-30.33,32.571-54.742"/>
		</g>
		<g>
			<path fill="none" stroke="#333333" stroke-width="3.1487" stroke-linecap="round" d="M273.457,473.557
				c8.788,10.269,17.438,33.413,7.443,41.86c-6.144,5.192-20.402,7.705-30.356-3.808"/>
			<path fill="none" stroke="#333333" stroke-width="2.447" stroke-linecap="round" d="M234.711,445.375
				c-6.206-10.612-11.079-25.213-14.397-32.809c-3.986-9.123-8.014-27.946-0.642-30.067c12.422-3.574,7.747,23.659,21.834,29.44"/>
			<path fill="none" stroke="#333333" stroke-width="3.3407" stroke-linecap="round" d="M241.506,411.94
				c-0.471-18.8,5.577-61.188,19.271-32.08c10.464,22.246,9.965,68.638,12.682,93.695"/>
			<path fill="none" stroke="#333333" stroke-width="3.3605" stroke-linecap="round" d="M234.711,445.375
				c-0.286,10.161-6.726,18.639-7.667,28.434"/>
			<path fill="none" stroke="#333333" stroke-width="3.7922" stroke-linecap="round" d="M227.044,473.809
				c15.51-2.687,30.635,1.231,46.413-0.252"/>
			<path fill="none" stroke="#333333" stroke-width="3.6781" stroke-linecap="round" d="M234.711,445.375
				c6.241-9.12,7.352-22.419,6.795-33.436"/>
			<path fill="none" stroke="#333333" stroke-width="4.6579" stroke-linecap="round" d="M227.044,473.809
				c-20.854,18.802-4.182,67.04,23.5,37.801"/>
			<path fill="none" stroke="#333333" stroke-width="3.3841" stroke-linecap="round" d="M250.544,511.609
				c0.063-7.475-5.188-17.347,0-23.4"/>
		</g>
		<g>
			<path fill="none" stroke="#333333" stroke-width="4.0139" stroke-linecap="round" d="M1668.85,516.73
				c-17.008,19.75-41.836,8.646-37.307-16.972c1.566-8.862,3.99-18.148,8.001-25.551"/>
			<path fill="none" stroke="#333333" stroke-width="4.025" stroke-linecap="round" d="M1639.544,474.209
				c1.712-21.15,14.186-79.853,32.609-92.245c13.489-9.073,1.46,29.547,2.391,38.245"/>
			<path fill="none" stroke="#333333" stroke-width="3.5386" stroke-linecap="round" d="M1687.878,469.709
				c-1.356-19.931,7.423-48.674,15.32-66.776c1.112-2.555,6.629-11.697-0.979-13.141c-13.304-2.525-18.484,23.651-27.676,30.417"/>
			<path fill="none" stroke="#333333" stroke-width="4.5422" stroke-linecap="round" d="M1674.544,420.209
				c-3.114,10.035-3.534,20.537-3,31"/>
			<path fill="none" stroke="#333333" stroke-width="3.2064" stroke-linecap="round" d="M1668.85,516.73
				c-0.449-6.114-0.611-12.496,0.194-18.521"/>
			<path fill="none" stroke="#333333" stroke-width="3.3108" stroke-linecap="round" d="M1668.85,516.73
				c25.93,11.016,29.559-31.39,19.028-47.021"/>
			<path fill="none" stroke="#333333" stroke-width="4.1062" stroke-linecap="round" d="M1687.878,469.709
				c-16.457,2.334-32.36-0.1-48.334,4.5"/>
		</g>
	</g>
	<g>
		<path fill="none" stroke="#333333" stroke-width="3.32" stroke-linecap="round" d="M311.944,377.809
			c2.597-6.857,0.393-8.93,3.816-12.25c14.708-14.26,4.097,28.094,14.782,30.25"/>
		<path fill="none" stroke="#333333" stroke-width="2.911" stroke-linecap="round" d="M330.544,395.809
			c4.352-5.442,1.752-22.405,4.467-27.59c10.473-19.995,12.605,29.086,23.533,34.99"/>
		<path fill="none" stroke="#333333" stroke-width="4.1278" stroke-linecap="round" d="M373.919,460.709
			c21.731,32.984,8.205,71.281-28.375,48.5"/>
		<path fill="none" stroke="#333333" stroke-width="3.1189" stroke-linecap="round" d="M311.944,377.809
			c-3.046,26.447,15.091,52.974,5.903,78.921"/>
		<path fill="none" stroke="#333333" stroke-width="2.9984" stroke-linecap="round" d="M317.849,456.73
			c18.979,2.897,38.512-4.417,56.07,3.979"/>
		<path fill="none" stroke="#333333" stroke-width="3.7459" stroke-linecap="round" d="M373.919,460.709
			c-1.229-13.212,9.436-43.102,7.05-61.043c-2.208-16.611-9.049-35.85-17.85-42.232c-2.135-1.548-4.148-0.652-4.417-0.508
			c-9.838,5.255,13.073,33.912-0.158,46.283"/>
		<path fill="none" stroke="#333333" stroke-width="3.7187" stroke-linecap="round" d="M330.544,395.809
			c4.586,9.057,4.825,24.517,12.244,30.576c12.581,10.275,19.671-10.601,15.756-23.176"/>
		<path fill="none" stroke="#333333" stroke-width="3.4803" stroke-linecap="round" d="M317.849,456.73
			c-8.831,5.824-16.026,25.214-14.312,36.479c2.318,15.238,29.27,38.731,42.009,16"/>
		<path fill="none" stroke="#333333" stroke-width="3.2387" stroke-linecap="round" d="M345.544,509.209
			c-4.364-8.439-1.341-17.97-2-27"/>
	</g>
</g>
</svg>
